<svg width="11" height="15" viewBox="0 0 11 15" fill="none" xmlns="http://www.w3.org/2000/svg">
<path d="M10.6498 5.61766C10.5906 5.51525 10.5065 5.43358 10.3976 5.37266C10.2888 5.31173 10.1696 5.28127 10.04 5.28127H7.00333V0.688492C7.00333 0.548492 6.95648 0.420158 6.86276 0.303492C6.76905 0.186825 6.64778 0.110344 6.49894 0.0740473C6.3501 0.0364547 6.20609 0.0409917 6.0669 0.0876584C5.92771 0.134325 5.81332 0.217936 5.72375 0.338492L0.603333 7.77405C0.534427 7.87645 0.497218 7.98794 0.491705 8.10849C0.487571 8.23034 0.517889 8.34247 0.582661 8.44488C0.646055 8.54729 0.732877 8.62895 0.843126 8.68988C0.951998 8.75081 1.07052 8.78127 1.19868 8.78127H4.2209V13.374C4.2209 13.514 4.26776 13.6424 4.36147 13.759C4.45656 13.8757 4.57577 13.9548 4.7191 13.9963C4.8638 14.0378 5.00781 14.0352 5.15114 13.9885C5.29446 13.9418 5.41091 13.8582 5.50049 13.7377L10.6209 6.30405C10.6898 6.20034 10.727 6.08821 10.7325 5.96766C10.738 5.84581 10.7105 5.72914 10.6498 5.61766ZM8.74597 6.59766L5.62039 11.1477V8.12405C5.62039 7.94645 5.55079 7.7922 5.4116 7.66127C5.27241 7.53034 5.10841 7.46488 4.91961 7.46488H2.48034L5.62039 2.91488V5.93849C5.62039 6.11608 5.68998 6.27034 5.82917 6.40127C5.96699 6.5322 6.13029 6.59766 6.3191 6.59766H8.74597Z" fill="#171A1B"/>
</svg>
